<svg xmlns="http://www.w3.org/2000/svg" xmlns:xlink="http://www.w3.org/1999/xlink" id="Layer_1" x="0" y="0" version="1.1" viewBox="0 0 20 20" xml:space="preserve" style="enable-background:new 0 0 20 20"><style type="text/css">.st0{fill:#eaeaea}</style><path d="M11.5,1.9c-0.5,0-0.9,0.1-1.3,0.3l0.1-0.3c0,0,0.4-1.7-1.2-1.8C8.9,0,8.8,0.1,8.8,0.2L8.5,1.9	C8,1.9,7.6,2,7.2,2.1l0.1-0.3c0,0,0.4-1.7-1.2-1.8C5.9,0,5.9,0.1,5.9,0.2L5,4.9c0,0.2-0.1,0.4-0.1,0.7c0,2,1.6,3.7,3.5,3.7	c2,0,3.6-1.6,3.6-3.7c0-0.5-0.1-0.9-0.4-1.1c-0.3-0.3-0.9-0.2-1.1,0.1c-0.2,0.3-0.2,0.8-0.2,1c0,0.4-0.2,0.8-0.4,1.2	C9.7,6.4,9.6,6,9.6,5.5c0-1.1,0.9-1.9,1.9-1.9c1,0,1.9,0.9,1.8,1.9c0,0.7-0.1,1.4-0.7,1.7c0,0-0.1,0.1-0.2,0.2	c-0.1,0.1-0.1,0.2-0.1,0.2c-0.3,0.6-0.7,1-1.2,1.4c0,0-0.1,0.1-0.1,0.1c0,0,0.1,0.1,0.1,0.1c0.2,0,0,0,0.2,0c2,0,3.6-1.6,3.6-3.7	C15,3.5,13.4,1.9,11.5,1.9z M6.6,5.5c0-0.9,0.7-1.7,1.5-1.9L7.9,4.9c0,0.2-0.1,0.4-0.1,0.7c0,0.7,0.2,1.3,0.5,1.9	C7.4,7.4,6.6,6.6,6.6,5.5z" class="st0"/></svg>