<svg xmlns="http://www.w3.org/2000/svg" xmlns:svg="http://www.w3.org/2000/svg" id="svg2" width="17" height="17" version="1.1" xml:space="preserve"><metadata id="metadata8"/><defs id="defs6"><clipPath id="clipPath16" clipPathUnits="userSpaceOnUse"><path id="path18" d="M 0,79 79,79 79,0 0,0 0,79 z"/></clipPath></defs><g id="g10" transform="matrix(1.25,0,0,-1.25,0,17)"><g id="g12" transform="matrix(0.17215223,0,0,0.17215223,0,1.2417717e-4)" style="fill:#dcdcdc;fill-opacity:1"><g id="g14" clip-path="url(#clipPath16)" style="fill:#dcdcdc;fill-opacity:1"><g id="g20" transform="translate(9.5186,48.0664)" style="fill:#dcdcdc;fill-opacity:1"><path style="fill:#dcdcdc;fill-opacity:1;fill-rule:nonzero;stroke:none" id="path22" d="m 0,0 c 0,11.828 9.588,21.416 21.413,21.416 11.829,0 22.369,-10.539 22.369,-22.367 0,-11.828 -9.589,-21.416 -21.417,-21.416 C 10.539,-22.367 0,-11.828 0,0 m 67.706,-35.903 -18.894,18.894 c 2.848,4.681 4.489,10.177 4.489,16.058 0,17.082 -14.803,31.885 -31.888,31.885 C 4.331,30.934 -9.519,17.084 -9.519,0 c 0,-17.084 14.802,-31.885 31.884,-31.885 5.681,0 11,1.538 15.574,4.21 l 18.998,-18.997 c 1.859,-1.859 4.873,-1.859 6.73,0 l 4.712,4.711 c 1.859,1.859 1.185,4.199 -0.673,6.058"/></g></g></g></g></svg>